<?xml version="1.0" standalone="no"?>
<!DOCTYPE svg PUBLIC "-//W3C//DTD SVG 20010904//EN"
 "http://www.w3.org/TR/2001/REC-SVG-20010904/DTD/svg10.dtd">
<svg version="1.0" xmlns="http://www.w3.org/2000/svg"
 width="760.000000pt" height="760.000000pt" viewBox="0 0 760.000000 760.000000"
 preserveAspectRatio="xMidYMid meet">
<metadata>
Created by potrace 1.14, written by Peter Selinger 2001-2017
</metadata>
<g transform="translate(0.000000,760.000000) scale(0.100000,-0.100000)"
fill="#000000" stroke="none">
<path d="M2250 7213 c-14 -2 -75 -17 -136 -33 -587 -154 -1027 -660 -1100
-1265 -3 -22 -6 -890 -7 -1928 l-2 -1888 95 6 c176 11 218 17 356 46 55 11
110 23 124 25 36 7 284 90 328 110 220 99 372 188 533 310 116 87 346 312 430
419 194 247 357 565 435 850 16 59 52 227 59 275 3 25 8 56 10 70 2 14 7 54
10 88 l7 64 -123 -7 c-68 -3 -126 -8 -129 -10 -3 -1 -36 -6 -75 -10 -38 -4
-72 -8 -76 -10 -3 -2 -20 -7 -38 -10 -170 -30 -391 -102 -567 -185 -47 -22
-87 -40 -89 -40 -2 0 -3 699 -3 1553 -1 1763 0 1577 -9 1576 -5 -1 -19 -4 -33
-6z"/>
<path d="M3648 7206 c-49 -13 -68 -25 -105 -66 -49 -55 -50 -71 -50 -605 -1
-535 0 -539 50 -593 47 -50 69 -55 267 -57 191 -2 236 -6 355 -31 39 -8 81
-17 95 -20 89 -17 413 -139 490 -184 8 -5 38 -20 67 -35 61 -31 301 -190 358
-237 118 -99 233 -228 338 -378 162 -231 294 -544 333 -785 3 -20 7 -46 9 -57
5 -22 12 -87 20 -183 7 -68 7 -282 1 -335 -2 -19 -7 -64 -11 -100 -4 -36 -9
-68 -11 -71 -2 -4 -6 -24 -10 -45 -16 -113 -77 -296 -144 -441 -184 -399 -486
-721 -897 -957 -240 -138 -545 -232 -853 -262 -36 -4 -655 -7 -1375 -8 l-1311
-1 -68 -34 c-77 -38 -180 -132 -187 -171 -3 -14 -4 -239 -4 -500 1 -426 3
-479 19 -515 21 -50 69 -100 121 -128 45 -25 75 -25 705 -13 179 4 424 9 545
11 121 2 357 7 525 10 168 4 467 8 665 10 198 2 389 6 425 9 75 7 154 16 190
21 133 19 166 24 250 41 339 68 667 190 998 370 538 293 1035 783 1330 1309
62 110 192 374 192 390 0 2 5 16 12 32 6 15 13 33 14 38 2 6 22 62 44 125 35
99 101 344 114 420 2 14 7 36 10 50 6 29 14 79 22 152 3 29 9 77 13 106 20
132 17 641 -3 703 -3 8 -7 43 -11 79 -8 85 -50 300 -82 420 -152 576 -451
1097 -868 1515 -202 203 -319 299 -543 449 -465 310 -994 495 -1577 552 -115
11 -423 11 -467 0z"/>
</g>
</svg>
